<svg version="1.1" xmlns="http://www.w3.org/2000/svg" xmlns:xlink="http://www.w3.org/1999/xlink" x="0px" y="0px" width="100px" height="100px" viewBox="0 0 100 100" enable-background="new 0 0 100 100" xml:space="preserve"><g>
<path fill="#FFFFFF" d="M37.475,99.295c-2.544,0-5.143-0.239-7.725-0.71c-6.4-1.165-14.268-4.765-17.151-11.369   c-1.336-3.061-2.111-7.988,1.78-14.097c1.83-2.873,3.741-5.184,5.427-7.219c4.777-5.771,6.958-8.406,2.894-16.847   c-0.502-1.042-1.02-2.075-1.535-3.102c-3.883-7.741-7.898-15.745-4.296-25.609C21.329,8.127,33.813,0.235,48.672,0.235   c12.566,0,22.792,4.141,29.577,11.976C84.235,19.124,87.4,28.62,87.4,39.673C87.4,67.873,66.896,99.295,37.475,99.295z    M48.672,7.122c-9.778,0-21.405,4.818-25.335,15.583c-2.583,7.072,0.46,13.136,3.982,20.159c0.533,1.062,1.067,2.127,1.585,3.202   c5.978,12.418,1.232,18.153-3.793,24.225c-1.635,1.975-3.324,4.017-4.925,6.528c-1.842,2.891-2.26,5.391-1.277,7.641   c1.485,3.399,6.224,6.286,12.075,7.352c2.176,0.396,4.36,0.598,6.491,0.598c24.633,0,43.039-27.843,43.039-52.736   c0-9.374-2.584-17.311-7.471-22.954C67.53,10.351,59.33,7.122,48.672,7.122z"/>

<path fill="#FFFFFF" d="M42.178,80.194c16.598-6.128,29.942-28.247,20.849-45.177  c-4.01-7.465-11.979-11.487-19.109-5.371c-5.497,4.715-13.899,6.178-9.637-4.106c4.127-9.96,15.861-10.64,24.6-7.517  c9.468,3.382,13.595,13.251,14.102,22.604C73.921,57.914,62.085,81.415,42.178,80.194L42.178,80.194z"/>

<path fill="#FFFFFF" d="M38.387,65.818c4.14-6.445,0.271-16.967,4.424-21.798  c5.284-6.145,14.609,0.278,13.423,7.428c-0.99,5.97-7.996,8.399-11.689,12.318c-2.889,3.066-3.186,7.525-8.843,5.684  C36.251,68.263,37.253,66.715,38.387,65.818L38.387,65.818z"/>
</g></svg>
